<svg width="32" height="32" fill="none" xmlns="http://www.w3.org/2000/svg"><g clip-path="url(#a)" stroke="#fff" stroke-linecap="round" stroke-linejoin="round"><path d="M13.778 27a1.222 1.222 0 1 0 0-2.444 1.222 1.222 0 0 0 0 2.444Zm8.556 0a1.222 1.222 0 1 0 0-2.444 1.222 1.222 0 0 0 0 2.444Z" fill="#fff" stroke-width="1.5"/><path d="M4 5h3.782l2.836 16.073h15.128" stroke-width="2"/><path d="m10.111 17.184 15.247.107a.473.473 0 0 0 .464-.38l1.702-8.51a.473.473 0 0 0-.464-.565H8.567" stroke-width="2"/></g><defs><clipPath id="a"><path fill="#fff" transform="translate(3 4)" d="M0 0h26v24H0z"/></clipPath></defs></svg>