<svg width="60" height="60" fill="none" xmlns="http://www.w3.org/2000/svg"><path d="M0 30C0 13.431 13.431 0 30 0c16.569 0 30 13.431 30 30 0 16.569-13.431 30-30 30C13.431 60 0 46.569 0 30Z" fill="#EFF6F1"/><g clip-path="url(#a)"><path d="M29.797 20C24.387 20 20 24.385 20 29.792c0 4.009 2.414 7.454 5.865 8.97-.026-.681-.005-1.503.17-2.246.189-.796 1.26-5.338 1.26-5.338s-.315-.625-.315-1.547c0-1.452.84-2.536 1.89-2.536.892 0 1.32.669 1.32 1.469 0 .896-.573 2.234-.866 3.475-.245 1.04.52 1.884 1.548 1.884 1.855 0 3.106-2.382 3.106-5.206 0-2.147-1.448-3.75-4.076-3.75-2.97 0-4.824 2.215-4.824 4.69 0 .852.253 1.456.647 1.919.18.214.205.302.14.546-.048.18-.153.612-.201.787-.066.25-.267.337-.49.245-1.37-.56-2.008-2.055-2.008-3.742 0-2.78 2.349-6.116 7.002-6.116 3.74 0 6.202 2.706 6.202 5.609 0 3.842-2.139 6.71-5.288 6.71-1.058 0-2.05-.573-2.392-1.22 0 0-.568 2.256-.69 2.693-.206.757-.613 1.509-.985 2.099a9.85 9.85 0 0 0 2.777.402c5.41 0 9.797-4.385 9.797-9.792 0-5.408-4.382-9.797-9.792-9.797Z" fill="#274C5B"/></g><defs><clipPath id="a"><path fill="#fff" transform="translate(20 20)" d="M0 0h20v20H0z"/></clipPath></defs></svg>